<?xml version="1.0" encoding="utf-8"?>
<!-- Generator: Adobe Illustrator 16.0.0, SVG Export Plug-In . SVG Version: 6.00 Build 0)  -->
<!DOCTYPE svg PUBLIC "-//W3C//DTD SVG 1.1//EN" "http://www.w3.org/Graphics/SVG/1.1/DTD/svg11.dtd">
<svg version="1.1" id="Layer_1" xmlns="http://www.w3.org/2000/svg" xmlns:xlink="http://www.w3.org/1999/xlink" x="0px" y="0px"
	 width="3015.476px" height="1025.686px" viewBox="0 0 3015.476 1025.686" enable-background="new 0 0 3015.476 1025.686"
	 xml:space="preserve">
<g>
	
		<image overflow="visible" width="2560" height="1451" xlink:href="Screen Shot 2018-06-11 at 6.53.12 PM.png"  transform="matrix(0.513 0 0 0.513 340.7876 107.729)">
	</image>
	<rect x="331.788" y="98.729" fill="none" stroke="#231F20" stroke-width="2" width="1331.239" height="762.339"/>
</g>
<g opacity="0.5">
	<g>
		<polyline fill="none" stroke="#333333" stroke-width="3" stroke-miterlimit="10" stroke-dasharray="5,5" points="440.932,297.228 
			411.806,297.228 411.806,247.228 277.875,247.228 		"/>
		<g>
			<g>
				<circle fill="#FFFFFF" cx="440.612" cy="297.228" r="5.64"/>
				<path fill="#333333" d="M440.612,290.838c-3.523,0-6.39,2.867-6.39,6.39s2.867,6.39,6.39,6.39s6.39-2.867,6.39-6.39
					S444.135,290.838,440.612,290.838S444.135,290.838,440.612,290.838z M440.612,302.117c-2.697,0-4.89-2.193-4.89-4.89
					s2.193-4.89,4.89-4.89s4.89,2.193,4.89,4.89S443.309,302.117,440.612,302.117S443.309,302.117,440.612,302.117z"/>
			</g>
		</g>
		<g>
			<polygon fill="#333333" points="287.815,234.958 289.862,237.155 279.026,247.225 289.862,257.297 287.815,259.494 
				274.622,247.225 			"/>
		</g>
	</g>
</g>
<g opacity="0.5">
	<g>
		<polyline fill="none" stroke="#333333" stroke-width="3" stroke-miterlimit="10" stroke-dasharray="5,5" points="439.775,391.894 
			426.573,391.894 426.573,429.971 313.299,429.971 		"/>
		<g>
			<g>
				<circle fill="#FFFFFF" cx="439.456" cy="391.894" r="5.64"/>
				<path fill="#333333" d="M439.456,385.504c-3.523,0-6.39,2.867-6.39,6.39s2.867,6.39,6.39,6.39s6.39-2.867,6.39-6.39
					S442.979,385.504,439.456,385.504S442.979,385.504,439.456,385.504z M439.456,396.784c-2.697,0-4.89-2.193-4.89-4.89
					s2.193-4.89,4.89-4.89s4.89,2.193,4.89,4.89S442.153,396.784,439.456,396.784S442.153,396.784,439.456,396.784z"/>
			</g>
		</g>
		<g>
			<polygon fill="#333333" points="323.24,417.702 325.286,419.899 314.451,429.968 325.286,440.041 323.24,442.238 
				310.046,429.968 			"/>
		</g>
	</g>
</g>
<g opacity="0.5">
	<g>
		<polyline fill="none" stroke="#333333" stroke-width="3" stroke-miterlimit="10" stroke-dasharray="5,5" points="390.57,133.702 
			336.297,133.702 336.297,93.561 226.188,93.561 		"/>
		<g>
			<g>
				<circle fill="#FFFFFF" cx="390.251" cy="133.702" r="5.64"/>
				<path fill="#333333" d="M390.251,127.312c-3.523,0-6.39,2.867-6.39,6.39s2.867,6.39,6.39,6.39s6.39-2.867,6.39-6.39
					S393.774,127.312,390.251,127.312S393.774,127.312,390.251,127.312z M390.251,138.592c-2.697,0-4.89-2.193-4.89-4.89
					s2.193-4.89,4.89-4.89s4.89,2.193,4.89,4.89S392.948,138.592,390.251,138.592S392.948,138.592,390.251,138.592z"/>
			</g>
		</g>
		<g>
			<polygon fill="#333333" points="236.128,81.292 238.174,83.489 227.339,93.558 238.174,103.63 236.128,105.828 222.934,93.558 
							"/>
		</g>
	</g>
</g>
<g opacity="0.5">
	<g>
		<polyline fill="none" stroke="#333333" stroke-width="3" stroke-miterlimit="10" stroke-dasharray="5,5" points="685.598,486.651 
			485.399,801.095 306.994,801.095 		"/>
		<g>
			<g>
				<circle fill="#FFFFFF" cx="685.427" cy="486.92" r="5.64"/>
				<path fill="#333333" d="M680.037,483.488c-1.892,2.972-1.013,6.93,1.958,8.822s6.93,1.014,8.822-1.958
					c1.892-2.972,1.013-6.929-1.958-8.821S681.929,480.517,680.037,483.488C678.145,486.46,681.929,480.517,680.037,483.488z
					 M689.551,489.546c-1.448,2.275-4.476,2.947-6.75,1.499s-2.947-4.476-1.499-6.751c1.448-2.274,4.476-2.947,6.75-1.499
					C690.328,484.244,691,487.271,689.551,489.546S691,487.271,689.551,489.546z"/>
			</g>
		</g>
		<g>
			<polygon fill="#333333" points="316.935,788.825 318.981,791.022 308.146,801.092 318.981,811.164 316.935,813.361 
				303.741,801.092 			"/>
		</g>
	</g>
</g>
<g opacity="0.5">
	<g>
		
			<line fill="none" stroke="#333333" stroke-width="3" stroke-miterlimit="10" stroke-dasharray="5,5" x1="1454.413" y1="636.887" x2="1454.413" y2="712.748"/>
		<g>
			<g>
				<circle fill="#FFFFFF" cx="1454.413" cy="637.206" r="5.64"/>
				<path fill="#333333" d="M1448.023,637.206c0,3.523,2.867,6.39,6.39,6.39s6.39-2.867,6.39-6.39s-2.867-6.39-6.39-6.39
					S1448.023,633.683,1448.023,637.206S1448.023,633.683,1448.023,637.206z M1459.302,637.206c0,2.697-2.193,4.89-4.89,4.89
					s-4.89-2.193-4.89-4.89s2.193-4.89,4.89-4.89S1459.302,634.509,1459.302,637.206S1459.302,634.509,1459.302,637.206z"/>
			</g>
		</g>
		<g>
			<polygon fill="#333333" points="1442.143,702.809 1444.34,700.762 1454.41,711.598 1464.482,700.762 1466.679,702.809 
				1454.41,716.002 			"/>
		</g>
	</g>
</g>
<g opacity="0.5">
	<path fill="none" d="M1752.622,494.826"/>
</g>
<g opacity="0.5">
	<g>
		<polyline fill="none" stroke="#333333" stroke-width="3" stroke-miterlimit="10" stroke-dasharray="5,5" points="812.259,266.33 
			1308.562,266.33 1308.562,290.692 		"/>
		<g>
			<g>
				<circle fill="#FFFFFF" cx="812.579" cy="266.33" r="5.64"/>
				<path fill="#333333" d="M812.579,272.719c3.523,0,6.39-2.867,6.39-6.39s-2.867-6.39-6.39-6.39s-6.39,2.867-6.39,6.39
					S809.056,272.719,812.579,272.719S809.056,272.719,812.579,272.719z M812.579,261.44c2.697,0,4.89,2.193,4.89,4.89
					s-2.193,4.89-4.89,4.89s-4.89-2.193-4.89-4.89S809.882,261.44,812.579,261.44S809.882,261.44,812.579,261.44z"/>
			</g>
		</g>
	</g>
</g>
<rect x="446.738" y="204.614" opacity="0.35" fill="none" stroke="#333333" stroke-width="3" stroke-miterlimit="10" stroke-dasharray="5" width="755.946" height="106"/>
<rect x="609.597" y="253.228" opacity="0.35" fill="none" stroke="#333333" stroke-width="3" stroke-miterlimit="10" stroke-dasharray="8" width="192.98" height="52"/>
<rect x="457.461" y="442.898" opacity="0.35" fill="none" stroke="#333333" stroke-width="3" stroke-miterlimit="10" stroke-dasharray="5" width="734.5" height="29.367"/>
<rect x="1323.558" y="268" opacity="0.35" fill="none" stroke="#333333" stroke-width="3" stroke-miterlimit="10" stroke-dasharray="5" width="191" height="34.667"/>
<rect x="1303.912" y="438.898" opacity="0.35" fill="none" stroke="#333333" stroke-width="3" stroke-miterlimit="10" stroke-dasharray="5" width="316.634" height="187"/>
<rect x="450.239" y="358.333" opacity="0.35" fill="none" stroke="#333333" stroke-width="3" stroke-miterlimit="10" stroke-dasharray="5" width="784.82" height="67.228"/>
<text transform="matrix(1 0 0 1 2 257.6138)" fill="#010101" font-family="'LinBiolinumB'" font-size="36">Document title</text>
<rect x="3.5" y="276.916" fill="none" width="292.612" height="54.354"/>
<text transform="matrix(1 0 0 1 3.5 293.6675)"><tspan x="0" y="0" fill="#010101" font-family="'LinBiolinum'" font-size="24">The</tspan><tspan x="36.984" y="0" fill="#010101" font-family="'LinBiolinum'" font-size="24" letter-spacing="10"> </tspan><tspan x="53.298" y="0" fill="#010101" font-family="'LinBiolinum'" font-size="24">title</tspan><tspan x="92.755" y="0" fill="#010101" font-family="'LinBiolinum'" font-size="24" letter-spacing="10"> </tspan><tspan x="109.07" y="0" fill="#010101" font-family="'LinBiolinum'" font-size="24">of</tspan><tspan x="128.605" y="0" fill="#010101" font-family="'LinBiolinum'" font-size="24" letter-spacing="10"> </tspan><tspan x="144.919" y="0" fill="#010101" font-family="'LinBiolinum'" font-size="24">the</tspan><tspan x="177.111" y="0" fill="#010101" font-family="'LinBiolinum'" font-size="24" letter-spacing="10"> </tspan><tspan x="193.425" y="0" fill="#010101" font-family="'LinBiolinum'" font-size="24">document </tspan><tspan x="0" y="28.8" fill="#010101" font-family="'LinBiolinum'" font-size="24">from the data collection</tspan></text>
<text transform="matrix(1 0 0 1 3 438.8984)" fill="#010101" font-family="'LinBiolinumB'" font-size="36">Paragraph excerpt</text>
<rect x="5" y="458.201" fill="none" width="298.741" height="172.615"/>
<text transform="matrix(1 0 0 1 5 474.9526)"><tspan x="0" y="0" fill="#010101" font-family="'LinBiolinum'" font-size="24">A</tspan><tspan x="15.094" y="0" fill="#010101" font-family="'LinBiolinum'" font-size="24" letter-spacing="5"> </tspan><tspan x="26.597" y="0" fill="#010101" font-family="'LinBiolinum'" font-size="24">selected</tspan><tspan x="105.898" y="0" fill="#010101" font-family="'LinBiolinum'" font-size="24" letter-spacing="5"> </tspan><tspan x="117.402" y="0" fill="#010101" font-family="'LinBiolinum'" font-size="24">paragraph</tspan><tspan x="219.308" y="0" fill="#010101" font-family="'LinBiolinum'" font-size="24" letter-spacing="5"> </tspan><tspan x="230.812" y="0" fill="#010101" font-family="'LinBiolinum'" font-size="24">by</tspan><tspan x="255.046" y="0" fill="#010101" font-family="'LinBiolinum'" font-size="24" letter-spacing="5"> </tspan><tspan x="266.549" y="0" fill="#010101" font-family="'LinBiolinum'" font-size="24">the </tspan><tspan x="0" y="28.8" fill="#010101" font-family="'LinBiolinum'" font-size="24">modified</tspan><tspan x="87.656" y="28.8" fill="#010101" font-family="'LinBiolinum'" font-size="24" letter-spacing="15"> </tspan><tspan x="109.041" y="28.8" fill="#010101" font-family="'LinBiolinum'" font-size="24">CAL</tspan><tspan x="152.729" y="28.8" fill="#010101" font-family="'LinBiolinum'" font-size="24" letter-spacing="15"> </tspan><tspan x="174.114" y="28.8" fill="#010101" font-family="'LinBiolinum'" font-size="24">model.</tspan><tspan x="240.372" y="28.8" fill="#010101" font-family="'LinBiolinum'" font-size="24" letter-spacing="15"> </tspan><tspan x="261.756" y="28.8" fill="#010101" font-family="'LinBiolinum'" font-size="24">The </tspan><tspan x="0" y="57.6" fill="#010101" font-family="'LinBiolinum'" font-size="24">model</tspan><tspan x="60.984" y="57.6" fill="#010101" font-family="'LinBiolinum'" font-size="24" letter-spacing="3"> </tspan><tspan x="70.463" y="57.6" fill="#010101" font-family="'LinBiolinum'" font-size="24">selects</tspan><tspan x="135.69" y="57.6" fill="#010101" font-family="'LinBiolinum'" font-size="24" letter-spacing="3"> </tspan><tspan x="145.169" y="57.6" fill="#010101" font-family="'LinBiolinum'" font-size="24">the</tspan><tspan x="177.361" y="57.6" fill="#010101" font-family="'LinBiolinum'" font-size="24" letter-spacing="3"> </tspan><tspan x="186.84" y="57.6" fill="#010101" font-family="'LinBiolinum'" font-size="24">most</tspan><tspan x="235.859" y="57.6" fill="#010101" font-family="'LinBiolinum'" font-size="24" letter-spacing="3"> </tspan><tspan x="245.338" y="57.6" fill="#010101" font-family="'LinBiolinum'" font-size="24">likely </tspan><tspan x="0" y="86.4" fill="#010101" font-family="'LinBiolinum'" font-size="24">relevant</tspan><tspan x="79.875" y="86.4" fill="#010101" font-family="'LinBiolinum'" font-size="24" letter-spacing="6"> </tspan><tspan x="92.326" y="86.4" fill="#010101" font-family="'LinBiolinum'" font-size="24">paragraph</tspan><tspan x="194.232" y="86.4" fill="#010101" font-family="'LinBiolinum'" font-size="24" letter-spacing="6"> </tspan><tspan x="206.684" y="86.4" fill="#010101" font-family="'LinBiolinum'" font-size="24">from</tspan><tspan x="254.098" y="86.4" fill="#010101" font-family="'LinBiolinum'" font-size="24" letter-spacing="6"> </tspan><tspan x="266.549" y="86.4" fill="#010101" font-family="'LinBiolinum'" font-size="24">the </tspan><tspan x="0" y="115.2" fill="#010101" font-family="'LinBiolinum'" font-size="24">document</tspan><tspan x="99.188" y="115.2" fill="#010101" font-family="'LinBiolinum'" font-size="24" letter-spacing="7"> </tspan><tspan x="112.718" y="115.2" fill="#010101" font-family="'LinBiolinum'" font-size="24">as</tspan><tspan x="133.765" y="115.2" fill="#010101" font-family="'LinBiolinum'" font-size="24" letter-spacing="7"> </tspan><tspan x="147.296" y="115.2" fill="#010101" font-family="'LinBiolinum'" font-size="24">a</tspan><tspan x="158.839" y="115.2" fill="#010101" font-family="'LinBiolinum'" font-size="24" letter-spacing="7"> </tspan><tspan x="172.37" y="115.2" fill="#010101" font-family="'LinBiolinum'" font-size="24">summary</tspan><tspan x="265.675" y="115.2" fill="#010101" font-family="'LinBiolinum'" font-size="24" letter-spacing="7"> </tspan><tspan x="279.206" y="115.2" fill="#010101" font-family="'LinBiolinum'" font-size="24">of </tspan><tspan x="0" y="144" fill="#010101" font-family="'LinBiolinum'" font-size="24">the document. </tspan></text>
<text transform="matrix(1 0 0 1 4 102.5605)" fill="#010101" font-family="'LinBiolinumB'" font-size="36">Review topic</text>
<rect x="4" y="121.863" fill="none" width="280.114" height="81.137"/>
<text transform="matrix(1 0 0 1 4 138.6147)"><tspan x="0" y="0" fill="#010101" font-family="'LinBiolinum'" font-size="24">Quick</tspan><tspan x="58.512" y="0" fill="#010101" font-family="'LinBiolinum'" font-size="24" letter-spacing="8"> </tspan><tspan x="73.38" y="0" fill="#010101" font-family="'LinBiolinum'" font-size="24">access</tspan><tspan x="135.372" y="0" fill="#010101" font-family="'LinBiolinum'" font-size="24" letter-spacing="8"> </tspan><tspan x="150.24" y="0" fill="#010101" font-family="'LinBiolinum'" font-size="24">to</tspan><tspan x="170.396" y="0" fill="#010101" font-family="'LinBiolinum'" font-size="24" letter-spacing="8"> </tspan><tspan x="185.264" y="0" fill="#010101" font-family="'LinBiolinum'" font-size="24">th</tspan><tspan x="206.592" y="0" fill="#010101" font-family="'LinBiolinum'" font-size="24" letter-spacing="-1">e</tspan><tspan x="216.015" y="0" fill="#010101" font-family="'LinBiolinum'" font-size="24" letter-spacing="8"> </tspan><tspan x="230.883" y="0" fill="#010101" font-family="'LinBiolinum'" font-size="24">topic </tspan><tspan x="0" y="28.8" fill="#010101" font-family="'LinBiolinum'" font-size="24">user</tspan><tspan x="41.766" y="28.8" fill="#010101" font-family="'LinBiolinum'" font-size="24" letter-spacing="3"> </tspan><tspan x="51.659" y="28.8" fill="#010101" font-family="'LinBiolinum'" font-size="24">wants</tspan><tspan x="110.991" y="28.8" fill="#010101" font-family="'LinBiolinum'" font-size="24" letter-spacing="3"> </tspan><tspan x="120.885" y="28.8" fill="#010101" font-family="'LinBiolinum'" font-size="24">to</tspan><tspan x="141.042" y="28.8" fill="#010101" font-family="'LinBiolinum'" font-size="24" letter-spacing="3"> </tspan><tspan x="150.935" y="28.8" fill="#010101" font-family="'LinBiolinum'" font-size="24">find</tspan><tspan x="190.345" y="28.8" fill="#010101" font-family="'LinBiolinum'" font-size="24" letter-spacing="3"> </tspan><tspan x="200.239" y="28.8" fill="#010101" font-family="'LinBiolinum'" font-size="24">relevant </tspan><tspan x="0" y="57.6" fill="#010101" font-family="'LinBiolinum'" font-size="24">documents on. </tspan></text>
<text transform="matrix(1 0 0 1 11.3687 809.0898)" fill="#010101" font-family="'LinBiolinumB'" font-size="36">Full document</text>
<rect x="11.369" y="822.393" fill="none" width="263.253" height="76.83"/>
<text transform="matrix(1 0 0 1 11.3687 839.1445)"><tspan x="0" y="0" fill="#010101" font-family="'LinBiolinum'" font-size="24">Users</tspan><tspan x="54.996" y="0" fill="#010101" font-family="'LinBiolinum'" font-size="24" letter-spacing="9"> </tspan><tspan x="70.881" y="0" fill="#010101" font-family="'LinBiolinum'" font-size="24">can</tspan><tspan x="105.639" y="0" fill="#010101" font-family="'LinBiolinum'" font-size="24" letter-spacing="9"> </tspan><tspan x="121.525" y="0" fill="#010101" font-family="'LinBiolinum'" font-size="24">view</tspan><tspan x="166.783" y="0" fill="#010101" font-family="'LinBiolinum'" font-size="24" letter-spacing="9"> </tspan><tspan x="182.668" y="0" fill="#010101" font-family="'LinBiolinum'" font-size="24">the</tspan><tspan x="214.86" y="0" fill="#010101" font-family="'LinBiolinum'" font-size="24" letter-spacing="9"> </tspan><tspan x="230.745" y="0" fill="#010101" font-family="'LinBiolinum'" font-size="24">full </tspan><tspan x="0" y="28.8" fill="#010101" font-family="'LinBiolinum'" font-size="24">document</tspan><tspan x="99.188" y="28.8" fill="#010101" font-family="'LinBiolinum'" font-size="24" letter-spacing="4"> </tspan><tspan x="109.403" y="28.8" fill="#010101" font-family="'LinBiolinum'" font-size="24">content</tspan><tspan x="184.72" y="28.8" fill="#010101" font-family="'LinBiolinum'" font-size="24" letter-spacing="4"> </tspan><tspan x="194.936" y="28.8" fill="#010101" font-family="'LinBiolinum'" font-size="24">if</tspan><tspan x="208.705" y="28.8" fill="#010101" font-family="'LinBiolinum'" font-size="24" letter-spacing="4"> </tspan><tspan x="218.921" y="28.8" fill="#010101" font-family="'LinBiolinum'" font-size="24">they </tspan><tspan x="0" y="57.6" fill="#010101" font-family="'LinBiolinum'" font-size="24">wish. </tspan></text>
<text transform="matrix(1 0 0 1 1292.0591 758.6035)" fill="#010101" font-family="'LinBiolinumB'" font-size="36">Keyboard shortcuts</text>
<rect x="1294.765" y="779.425" fill="none" width="319.295" height="85.936"/>
<text transform="matrix(1 0 0 1 1294.7646 796.1768)"><tspan x="0" y="0" fill="#010101" font-family="'LinBiolinum'" font-size="24">Quick</tspan><tspan x="58.512" y="0" fill="#010101" font-family="'LinBiolinum'" font-size="24" letter-spacing="5"> </tspan><tspan x="70.071" y="0" fill="#010101" font-family="'LinBiolinum'" font-size="24">judgments</tspan><tspan x="174.965" y="0" fill="#010101" font-family="'LinBiolinum'" font-size="24" letter-spacing="5"> </tspan><tspan x="186.524" y="0" fill="#010101" font-family="'LinBiolinum'" font-size="24">using</tspan><tspan x="240.032" y="0" fill="#010101" font-family="'LinBiolinum'" font-size="24" letter-spacing="5"> </tspan><tspan x="251.592" y="0" fill="#010101" font-family="'LinBiolinum'" font-size="24">any</tspan><tspan x="288.201" y="0" fill="#010101" font-family="'LinBiolinum'" font-size="24" letter-spacing="5"> </tspan><tspan x="299.76" y="0" fill="#010101" font-family="'LinBiolinum'" font-size="24">of </tspan><tspan x="0" y="28.8" fill="#010101" font-family="'LinBiolinum'" font-size="24">the keyboard shortcuts.</tspan></text>
<g opacity="0.5">
	<path fill="none" d="M1746.622,288.333"/>
</g>
<text transform="matrix(1 0 0 1 813.6655 656)" fill="#010101" font-family="'LinBiolinumB'" font-size="36">Highlight keywords</text>
<rect x="401.692" y="110.959" opacity="0.35" fill="none" stroke="#333333" stroke-width="3" stroke-miterlimit="10" stroke-dasharray="5" width="448.368" height="36.667"/>
<line fill="none" stroke="#333333" stroke-width="3" stroke-miterlimit="10" stroke-dasharray="5" x1="1334.749" y1="362.627" x2="1329.749" y2="362.627"/>
<g opacity="0.5">
	<g>
		<polyline fill="none" stroke="#333333" stroke-width="3" stroke-miterlimit="10" stroke-dasharray="5,5" points="
			1309.809,286.954 1282.92,286.954 1282.92,650.089 1169.935,650.089 		"/>
		<g>
			<g>
				<circle fill="#FFFFFF" cx="1309.489" cy="286.954" r="5.64"/>
				<path fill="#333333" d="M1309.489,280.564c-3.523,0-6.39,2.867-6.39,6.39s2.867,6.39,6.39,6.39s6.39-2.867,6.39-6.39
					S1313.012,280.564,1309.489,280.564S1313.012,280.564,1309.489,280.564z M1309.489,291.844c-2.697,0-4.89-2.193-4.89-4.89
					s2.193-4.89,4.89-4.89s4.89,2.193,4.89,4.89S1312.186,291.844,1309.489,291.844S1312.186,291.844,1309.489,291.844z"/>
			</g>
		</g>
		<g>
			<polygon fill="#333333" points="1179.875,637.819 1181.921,640.017 1171.086,650.086 1181.921,660.158 1179.875,662.355 
				1166.681,650.086 			"/>
		</g>
	</g>
</g>
<g>
	
		<image overflow="visible" width="2560" height="1452" xlink:href="Screen Shot 2018-06-11 at 6.51.11 PM.png"  transform="matrix(0.5129 0 0 0.5129 1688.0303 106.478)">
	</image>
	<rect x="1679.03" y="97.478" fill="none" stroke="#231F20" stroke-width="2" width="1331.018" height="762.727"/>
</g>
<g opacity="0.5">
	<path fill="none" d="M2999.078,500.768"/>
</g>
<rect x="1493.06" y="919.213" fill="none" width="679.888" height="144.944"/>
<text transform="matrix(1 0 0 1 1493.0596 939.4551)"><tspan x="0" y="0" fill="#010101" font-family="'LinBiolinum'" font-size="29">Documents</tspan><tspan x="136.561" y="0" fill="#010101" font-family="'LinBiolinum'" font-size="29"> </tspan><tspan x="143.279" y="0" fill="#010101" font-family="'LinBiolinum'" font-size="29">judged</tspan><tspan x="225.041" y="0" fill="#010101" font-family="'LinBiolinum'" font-size="29"> </tspan><tspan x="231.76" y="0" fill="#010101" font-family="'LinBiolinum'" font-size="29">from</tspan><tspan x="289.052" y="0" fill="#010101" font-family="'LinBiolinum'" font-size="29"> </tspan><tspan x="295.771" y="0" fill="#010101" font-family="'LinBiolinum'" font-size="29">ISJ</tspan><tspan x="328.24" y="0" fill="#010101" font-family="'LinBiolinum'" font-size="29"> </tspan><tspan x="334.959" y="0" fill="#010101" font-family="'LinBiolinum'" font-size="29">are</tspan><tspan x="372.328" y="0" fill="#010101" font-family="'LinBiolinum'" font-size="29"> </tspan><tspan x="379.047" y="0" fill="#010101" font-family="'LinBiolinum'" font-size="29">used</tspan><tspan x="434.584" y="0" fill="#010101" font-family="'LinBiolinum'" font-size="29"> </tspan><tspan x="441.303" y="0" fill="#010101" font-family="'LinBiolinum'" font-size="29">to</tspan><tspan x="465.658" y="0" fill="#010101" font-family="'LinBiolinum'" font-size="29"> </tspan><tspan x="472.377" y="0" fill="#010101" font-family="'LinBiolinum'" font-size="29">update/prime</tspan><tspan x="634.271" y="0" fill="#010101" font-family="'LinBiolinum'" font-size="29"> </tspan><tspan x="640.99" y="0" fill="#010101" font-family="'LinBiolinum'" font-size="29">the </tspan><tspan x="0" y="34.8" fill="#010101" font-family="'LinBiolinum'" font-size="29">machine learning model.</tspan></text>
<g opacity="0.5">
	<path fill="none" d="M3056.075,294.276"/>
</g>
<text transform="matrix(1 0 0 1 689.9688 46.5386)"><tspan x="0" y="0" fill="#010101" font-family="'LinBiolinumB'" font-size="36" letter-spacing="2">Document Review Queue</tspan><tspan x="458.817" y="0" fill="#010101" font-family="'LinBiolinumB'" font-size="36"> Interface</tspan><tspan x="-38.933" y="33.6" fill="#010101" font-family="'LinBiolinumB'" font-size="28">Based on Continuous Active Learning (CAL/AutoTAR)</tspan><tspan x="648.489" y="33.6" fill="#010101" font-family="'LinBiolinumB'" font-size="28" letter-spacing="-1"> </tspan></text>
<text transform="matrix(1 0 0 1 1995.8711 46.5386)" fill="#010101" font-family="'LinBiolinumB'" font-size="36">Interactive Search and Judging (ISJ) Interface</text>
<g opacity="0.5">
	<g>
		<polyline fill="none" stroke="#333333" stroke-width="3" stroke-miterlimit="10" stroke-dasharray="5,5" points="
			1768.056,873.088 1768.056,892.024 1526.96,892.024 1526.96,870.271 		"/>
		<g>
			<g>
				<circle fill="#FFFFFF" cx="1768.056" cy="873.407" r="5.64"/>
				<path fill="#333333" d="M1761.666,873.407c0,3.522,2.866,6.39,6.39,6.39s6.39-2.867,6.39-6.39s-2.866-6.39-6.39-6.39
					S1761.666,869.885,1761.666,873.407S1761.666,869.885,1761.666,873.407z M1772.945,873.407c0,2.696-2.192,4.89-4.89,4.89
					s-4.89-2.193-4.89-4.89s2.192-4.89,4.89-4.89S1772.945,870.711,1772.945,873.407S1772.945,870.711,1772.945,873.407z"/>
			</g>
		</g>
		<g>
			<polygon fill="#333333" points="1539.229,880.211 1537.032,882.258 1526.963,871.422 1516.891,882.258 1514.693,880.211 
				1526.963,867.018 			"/>
		</g>
	</g>
</g>
<text transform="matrix(1 0 0 1 1267.6162 956.8633)" fill="#010101" font-family="'LinBiolinumB'" font-size="47">Feedback </text>
</svg>
