<?xml version="1.0" encoding="utf-8"?>
<!-- Generator: Adobe Illustrator 16.0.0, SVG Export Plug-In . SVG Version: 6.00 Build 0)  -->
<!DOCTYPE svg PUBLIC "-//W3C//DTD SVG 1.1//EN" "http://www.w3.org/Graphics/SVG/1.1/DTD/svg11.dtd">
<svg version="1.1" id="Layer_1" xmlns="http://www.w3.org/2000/svg" xmlns:xlink="http://www.w3.org/1999/xlink" x="0px" y="0px"
	 width="3015.477px" height="1025.686px" viewBox="0 0 3015.477 1025.686" enable-background="new 0 0 3015.477 1025.686"
	 xml:space="preserve">
<image overflow="visible" width="1256" height="783" xlink:href="../../../../Desktop/calimages/search.png"  transform="matrix(0.9999 0 0 0.9999 1684.5078 89.8291)">
</image>
<g opacity="0.5">
	<g>
		
			<line fill="none" stroke="#333333" stroke-width="3" stroke-miterlimit="10" stroke-dasharray="5,5" x1="1588.611" y1="545.704" x2="1588.611" y2="726.677"/>
		<g>
			<g>
				<circle fill="#FFFFFF" cx="1588.611" cy="546.023" r="5.64"/>
				<path fill="#333333" d="M1582.222,546.023c0,3.522,2.866,6.39,6.39,6.39c3.522,0,6.39-2.867,6.39-6.39
					c0-3.523-2.867-6.39-6.39-6.39C1585.088,539.634,1582.222,542.5,1582.222,546.023
					C1582.222,549.546,1582.222,542.5,1582.222,546.023z M1593.5,546.023c0,2.697-2.192,4.89-4.89,4.89s-4.891-2.192-4.891-4.89
					s2.193-4.89,4.891-4.89S1593.5,543.326,1593.5,546.023S1593.5,543.326,1593.5,546.023z"/>
			</g>
		</g>
		<g>
			<polygon fill="#333333" points="1576.341,717.888 1578.538,715.841 1588.608,726.677 1598.681,715.841 1600.877,717.888 
				1588.608,731.081 			"/>
		</g>
	</g>
</g>
<image overflow="visible" width="1256" height="783" xlink:href="../../../../Desktop/calimages/cal.png"  transform="matrix(0.9999 0 0 0.9999 390.5703 89.8291)">
</image>
<g opacity="0.5">
	<g>
		
			<line fill="none" stroke="#333333" stroke-width="3" stroke-miterlimit="10" stroke-dasharray="5,5" x1="434.596" y1="247.228" x2="265.875" y2="247.228"/>
		<g>
			<g>
				<circle fill="#FFFFFF" cx="435.054" cy="247.114" r="5.64"/>
				<path fill="#333333" d="M435.054,240.724c-3.523,0-6.391,2.867-6.391,6.39s2.867,6.39,6.391,6.39c3.522,0,6.39-2.867,6.39-6.39
					S438.576,240.724,435.054,240.724C431.53,240.724,438.576,240.724,435.054,240.724z M435.054,252.003
					c-2.697,0-4.891-2.193-4.891-4.89c0-2.697,2.193-4.89,4.891-4.89c2.696,0,4.89,2.193,4.89,4.89
					C439.943,249.81,437.75,252.003,435.054,252.003C432.356,252.003,437.75,252.003,435.054,252.003z"/>
			</g>
		</g>
		<g>
			<polygon fill="#333333" points="275.815,234.958 277.862,237.155 267.026,247.225 277.862,257.297 275.815,259.494 
				262.622,247.225 			"/>
		</g>
	</g>
</g>
<g opacity="0.5">
	<g>
		<polyline fill="none" stroke="#333333" stroke-width="3" stroke-miterlimit="10" stroke-dasharray="5,5" points="685.598,540.651 
			471.238,636.343 306.994,637.343 		"/>
		<g>
			<g>
				<circle fill="#FFFFFF" cx="685.427" cy="540.92" r="5.64"/>
				<path fill="#333333" d="M680.037,537.488c-1.893,2.972-1.013,6.93,1.958,8.821c2.971,1.893,6.93,1.015,8.822-1.958
					c1.892-2.972,1.013-6.929-1.958-8.82C685.888,533.639,681.929,534.517,680.037,537.488
					C678.145,540.46,681.929,534.517,680.037,537.488z M689.551,543.546c-1.447,2.275-4.476,2.947-6.75,1.499
					c-2.273-1.448-2.947-4.476-1.499-6.751c1.448-2.274,4.477-2.947,6.75-1.499C690.328,538.244,691,541.271,689.551,543.546
					C688.102,545.821,691,541.271,689.551,543.546z"/>
			</g>
		</g>
		<g>
			<polygon fill="#333333" points="316.935,625.074 318.981,627.271 308.146,637.341 318.981,647.413 316.935,649.61 
				303.741,637.341 			"/>
		</g>
	</g>
</g>
<g opacity="0.5">
	<path fill="none" d="M1752.622,494.826"/>
</g>
<rect x="1329.749" y="397.534" opacity="0.35" fill="none" stroke="#333333" stroke-width="3" stroke-miterlimit="10" stroke-dasharray="5" enable-background="new    " width="274.489" height="146.975"/>
<text transform="matrix(1 0 0 1 2 257.6133)" fill="#010101" font-family="'LinBiolinumB'" font-size="36">Document title</text>
<rect x="3.5" y="276.916" fill="none" width="292.612" height="54.354"/>
<text transform="matrix(1 0 0 1 3.5 293.668)" fill="#010101" font-family="'LinBiolinum'" font-size="24">The</text>
<text transform="matrix(1 0 0 1 40.4839 293.668)" fill="#010101" font-family="'LinBiolinum'" font-size="24" letter-spacing="9"> </text>
<text transform="matrix(1 0 0 1 56.7979 293.668)" fill="#010101" font-family="'LinBiolinum'" font-size="24">title</text>
<text transform="matrix(1 0 0 1 96.2549 293.668)" fill="#010101" font-family="'LinBiolinum'" font-size="24" letter-spacing="9"> </text>
<text transform="matrix(1 0 0 1 112.5698 293.668)" fill="#010101" font-family="'LinBiolinum'" font-size="24">of</text>
<text transform="matrix(1 0 0 1 132.105 293.668)" fill="#010101" font-family="'LinBiolinum'" font-size="24" letter-spacing="9"> </text>
<text transform="matrix(1 0 0 1 148.4189 293.668)" fill="#010101" font-family="'LinBiolinum'" font-size="24">the</text>
<text transform="matrix(1 0 0 1 180.6108 293.668)" fill="#010101" font-family="'LinBiolinum'" font-size="24" letter-spacing="9"> </text>
<text transform="matrix(1 0 0 1 196.9248 293.668)" fill="#010101" font-family="'LinBiolinum'" font-size="24">document </text>
<text transform="matrix(1 0 0 1 3.5 322.4678)" fill="#010101" font-family="'LinBiolinum'" font-size="24">from the data collection</text>
<text transform="matrix(1 0 0 1 3 381.9932)" fill="#010101" font-family="'LinBiolinumB'" font-size="36">Paragraph excerpt</text>
<rect x="5" y="401.296" fill="none" width="298.741" height="172.615"/>
<text transform="matrix(1 0 0 1 5 418.0469)" fill="#010101" font-family="'LinBiolinum'" font-size="24">A</text>
<text transform="matrix(1 0 0 1 20.0942 418.0469)" fill="#010101" font-family="'LinBiolinum'" font-size="24" letter-spacing="4"> </text>
<text transform="matrix(1 0 0 1 31.5972 418.0469)" fill="#010101" font-family="'LinBiolinum'" font-size="24">selected</text>
<text transform="matrix(1 0 0 1 110.8979 418.0469)" fill="#010101" font-family="'LinBiolinum'" font-size="24" letter-spacing="4"> </text>
<text transform="matrix(1 0 0 1 122.4019 418.0469)" fill="#010101" font-family="'LinBiolinum'" font-size="24">paragraph</text>
<text transform="matrix(1 0 0 1 224.3081 418.0469)" fill="#010101" font-family="'LinBiolinum'" font-size="24" letter-spacing="4"> </text>
<text transform="matrix(1 0 0 1 235.812 418.0469)" fill="#010101" font-family="'LinBiolinum'" font-size="24">by</text>
<text transform="matrix(1 0 0 1 260.0459 418.0469)" fill="#010101" font-family="'LinBiolinum'" font-size="24" letter-spacing="4"> </text>
<text transform="matrix(1 0 0 1 271.5488 418.0469)" fill="#010101" font-family="'LinBiolinum'" font-size="24">the </text>
<text transform="matrix(1 0 0 1 5 446.8477)" fill="#010101" font-family="'LinBiolinum'" font-size="24">modified</text>
<text transform="matrix(1 0 0 1 92.6558 446.8477)" fill="#010101" font-family="'LinBiolinum'" font-size="24" letter-spacing="15"> </text>
<text transform="matrix(1 0 0 1 114.041 446.8477)" fill="#010101" font-family="'LinBiolinum'" font-size="24">CAL</text>
<text transform="matrix(1 0 0 1 157.729 446.8477)" fill="#010101" font-family="'LinBiolinum'" font-size="24" letter-spacing="15"> </text>
<text transform="matrix(1 0 0 1 179.1138 446.8477)" fill="#010101" font-family="'LinBiolinum'" font-size="24">model.</text>
<text transform="matrix(1 0 0 1 245.3721 446.8477)" fill="#010101" font-family="'LinBiolinum'" font-size="24" letter-spacing="15"> </text>
<text transform="matrix(1 0 0 1 266.7559 446.8477)" fill="#010101" font-family="'LinBiolinum'" font-size="24">The </text>
<text transform="matrix(1 0 0 1 5 475.6475)" fill="#010101" font-family="'LinBiolinum'" font-size="24">model</text>
<text transform="matrix(1 0 0 1 65.9839 475.6475)" fill="#010101" font-family="'LinBiolinum'" font-size="24" letter-spacing="3"> </text>
<text transform="matrix(1 0 0 1 75.4629 475.6475)" fill="#010101" font-family="'LinBiolinum'" font-size="24">selects</text>
<text transform="matrix(1 0 0 1 140.6899 475.6475)" fill="#010101" font-family="'LinBiolinum'" font-size="24" letter-spacing="3"> </text>
<text transform="matrix(1 0 0 1 150.1689 475.6475)" fill="#010101" font-family="'LinBiolinum'" font-size="24">the</text>
<text transform="matrix(1 0 0 1 182.3608 475.6475)" fill="#010101" font-family="'LinBiolinum'" font-size="24" letter-spacing="3"> </text>
<text transform="matrix(1 0 0 1 191.8398 475.6475)" fill="#010101" font-family="'LinBiolinum'" font-size="24">most</text>
<text transform="matrix(1 0 0 1 240.8589 475.6475)" fill="#010101" font-family="'LinBiolinum'" font-size="24" letter-spacing="3"> </text>
<text transform="matrix(1 0 0 1 250.3379 475.6475)" fill="#010101" font-family="'LinBiolinum'" font-size="24">likely </text>
<text transform="matrix(1 0 0 1 5 504.4473)" fill="#010101" font-family="'LinBiolinum'" font-size="24">relevant</text>
<text transform="matrix(1 0 0 1 84.875 504.4473)" fill="#010101" font-family="'LinBiolinum'" font-size="24" letter-spacing="6"> </text>
<text transform="matrix(1 0 0 1 97.3262 504.4473)" fill="#010101" font-family="'LinBiolinum'" font-size="24">paragraph</text>
<text transform="matrix(1 0 0 1 199.2319 504.4473)" fill="#010101" font-family="'LinBiolinum'" font-size="24" letter-spacing="6"> </text>
<text transform="matrix(1 0 0 1 211.6841 504.4473)" fill="#010101" font-family="'LinBiolinum'" font-size="24">from</text>
<text transform="matrix(1 0 0 1 259.0981 504.4473)" fill="#010101" font-family="'LinBiolinum'" font-size="24" letter-spacing="6"> </text>
<text transform="matrix(1 0 0 1 271.5488 504.4473)" fill="#010101" font-family="'LinBiolinum'" font-size="24">the </text>
<text transform="matrix(1 0 0 1 5 533.2471)" fill="#010101" font-family="'LinBiolinum'" font-size="24">document</text>
<text transform="matrix(1 0 0 1 104.188 533.2471)" fill="#010101" font-family="'LinBiolinum'" font-size="24" letter-spacing="6"> </text>
<text transform="matrix(1 0 0 1 117.7178 533.2471)" fill="#010101" font-family="'LinBiolinum'" font-size="24">as</text>
<text transform="matrix(1 0 0 1 138.7651 533.2471)" fill="#010101" font-family="'LinBiolinum'" font-size="24" letter-spacing="6"> </text>
<text transform="matrix(1 0 0 1 152.2959 533.2471)" fill="#010101" font-family="'LinBiolinum'" font-size="24">a</text>
<text transform="matrix(1 0 0 1 163.8389 533.2471)" fill="#010101" font-family="'LinBiolinum'" font-size="24" letter-spacing="6"> </text>
<text transform="matrix(1 0 0 1 177.3701 533.2471)" fill="#010101" font-family="'LinBiolinum'" font-size="24">summary</text>
<text transform="matrix(1 0 0 1 270.6748 533.2471)" fill="#010101" font-family="'LinBiolinum'" font-size="24" letter-spacing="6"> </text>
<text transform="matrix(1 0 0 1 284.2061 533.2471)" fill="#010101" font-family="'LinBiolinum'" font-size="24">of </text>
<text transform="matrix(1 0 0 1 5 562.0469)" fill="#010101" font-family="'LinBiolinum'" font-size="24">the document. </text>
<rect x="4" y="121.863" fill="none" width="280.114" height="81.137"/>
<text transform="matrix(1 0 0 1 9.063 652.8066)" fill="#010101" font-family="'LinBiolinumB'" font-size="36">Full document</text>
<rect x="9.063" y="666.109" fill="none" width="263.253" height="76.83"/>
<text transform="matrix(1 0 0 1 9.063 682.8613)" fill="#010101" font-family="'LinBiolinum'" font-size="24">Users</text>
<text transform="matrix(1 0 0 1 64.0591 682.8613)" fill="#010101" font-family="'LinBiolinum'" font-size="24" letter-spacing="9"> </text>
<text transform="matrix(1 0 0 1 79.9438 682.8613)" fill="#010101" font-family="'LinBiolinum'" font-size="24">can</text>
<text transform="matrix(1 0 0 1 114.7021 682.8613)" fill="#010101" font-family="'LinBiolinum'" font-size="24" letter-spacing="9"> </text>
<text transform="matrix(1 0 0 1 130.5879 682.8613)" fill="#010101" font-family="'LinBiolinum'" font-size="24">view</text>
<text transform="matrix(1 0 0 1 175.8462 682.8613)" fill="#010101" font-family="'LinBiolinum'" font-size="24" letter-spacing="9"> </text>
<text transform="matrix(1 0 0 1 191.731 682.8613)" fill="#010101" font-family="'LinBiolinum'" font-size="24">the</text>
<text transform="matrix(1 0 0 1 223.9229 682.8613)" fill="#010101" font-family="'LinBiolinum'" font-size="24" letter-spacing="9"> </text>
<text transform="matrix(1 0 0 1 239.8081 682.8613)" fill="#010101" font-family="'LinBiolinum'" font-size="24">full </text>
<text transform="matrix(1 0 0 1 9.063 711.6611)" fill="#010101" font-family="'LinBiolinum'" font-size="24">document</text>
<text transform="matrix(1 0 0 1 108.251 711.6611)" fill="#010101" font-family="'LinBiolinum'" font-size="24" letter-spacing="3"> </text>
<text transform="matrix(1 0 0 1 118.4658 711.6611)" fill="#010101" font-family="'LinBiolinum'" font-size="24">content</text>
<text transform="matrix(1 0 0 1 193.7832 711.6611)" fill="#010101" font-family="'LinBiolinum'" font-size="24" letter-spacing="3"> </text>
<text transform="matrix(1 0 0 1 203.999 711.6611)" fill="#010101" font-family="'LinBiolinum'" font-size="24">if</text>
<text transform="matrix(1 0 0 1 217.7681 711.6611)" fill="#010101" font-family="'LinBiolinum'" font-size="24" letter-spacing="3"> </text>
<text transform="matrix(1 0 0 1 227.9839 711.6611)" fill="#010101" font-family="'LinBiolinum'" font-size="24">they </text>
<text transform="matrix(1 0 0 1 9.063 740.4609)" fill="#010101" font-family="'LinBiolinum'" font-size="24">wish. </text>
<text transform="matrix(1 0 0 1 1283.0591 758.6035)" fill="#010101" font-family="'LinBiolinumB'" font-size="36">Keyboard shortcuts</text>
<rect x="1294.765" y="779.425" fill="none" width="319.296" height="85.937"/>
<text transform="matrix(1 0 0 1 1287.7646 796.1768)" fill="#010101" font-family="'LinBiolinum'" font-size="24">Quick</text>
<text transform="matrix(1 0 0 1 1346.2764 796.1768)" fill="#010101" font-family="'LinBiolinum'" font-size="24" letter-spacing="4"> </text>
<text transform="matrix(1 0 0 1 1357.8359 796.1768)" fill="#010101" font-family="'LinBiolinum'" font-size="24">judgments</text>
<text transform="matrix(1 0 0 1 1462.7295 796.1768)" fill="#010101" font-family="'LinBiolinum'" font-size="24" letter-spacing="4"> </text>
<text transform="matrix(1 0 0 1 1474.2886 796.1768)" fill="#010101" font-family="'LinBiolinum'" font-size="24">using</text>
<text transform="matrix(1 0 0 1 1527.7969 796.1768)" fill="#010101" font-family="'LinBiolinum'" font-size="24" letter-spacing="4"> </text>
<text transform="matrix(1 0 0 1 1539.3564 796.1768)" fill="#010101" font-family="'LinBiolinum'" font-size="24">any</text>
<text transform="matrix(1 0 0 1 1575.9658 796.1768)" fill="#010101" font-family="'LinBiolinum'" font-size="24" letter-spacing="4"> </text>
<text transform="matrix(1 0 0 1 1587.5244 796.1768)" fill="#010101" font-family="'LinBiolinum'" font-size="24">of </text>
<text transform="matrix(1 0 0 1 1287.7646 824.9766)" fill="#010101" font-family="'LinBiolinum'" font-size="24">the keyboard shortcuts.</text>
<g opacity="0.5">
	<path fill="none" d="M1746.622,288.333"/>
</g>
<text transform="matrix(1 0 0 1 876.6621 656)" fill="#010101" font-family="'LinBiolinumB'" font-size="36">Highlight terms</text>
<line fill="none" stroke="#333333" stroke-width="3" stroke-miterlimit="10" stroke-dasharray="5" x1="1334.749" y1="362.627" x2="1329.749" y2="362.627"/>
<g opacity="0.5">
	<g>
		<polyline fill="none" stroke="#333333" stroke-width="3" stroke-miterlimit="10" stroke-dasharray="5,5" points="
			1308.095,185.191 1308.095,646.764 1182.305,646.764 		"/>
		<g>
			<g>
				<ellipse fill="#FFFFFF" cx="1307.676" cy="185.192" rx="6.279" ry="7.169"/>
				<path fill="#333333" d="M1307.676,177.069c-3.923,0-7.115,3.645-7.115,8.122c0,4.479,3.192,8.123,7.115,8.123
					c3.921,0,7.114-3.644,7.114-8.123C1314.79,180.714,1311.597,177.069,1307.676,177.069
					C1303.753,177.069,1311.597,177.069,1307.676,177.069z M1307.676,191.407c-3.003,0-5.445-2.787-5.445-6.215
					s2.442-6.215,5.445-6.215c3.002,0,5.444,2.787,5.444,6.215S1310.678,191.407,1307.676,191.407
					C1304.673,191.407,1310.678,191.407,1307.676,191.407z"/>
			</g>
		</g>
		<g>
			<polygon fill="#333333" points="1193.371,631.168 1195.648,633.961 1183.585,646.76 1195.648,659.562 1193.371,662.355 
				1178.681,646.76 			"/>
		</g>
	</g>
</g>
<g opacity="0.5">
	<path fill="none" d="M2999.078,500.768"/>
</g>
<rect x="1493.061" y="919.213" fill="none" width="679.888" height="144.944"/>
<text transform="matrix(1 0 0 1 1493.0596 939.4551)" fill="#010101" font-family="'LinBiolinum'" font-size="29">Documents</text>
<text transform="matrix(1 0 0 1 1629.6211 939.4551)" fill="#010101" font-family="'LinBiolinum'" font-size="29"> </text>
<text transform="matrix(1 0 0 1 1636.3389 939.4551)" fill="#010101" font-family="'LinBiolinum'" font-size="29">judged</text>
<text transform="matrix(1 0 0 1 1718.1006 939.4551)" fill="#010101" font-family="'LinBiolinum'" font-size="29"> </text>
<text transform="matrix(1 0 0 1 1724.8193 939.4551)" fill="#010101" font-family="'LinBiolinum'" font-size="29">from</text>
<text transform="matrix(1 0 0 1 1782.1113 939.4551)" fill="#010101" font-family="'LinBiolinum'" font-size="29"> </text>
<text transform="matrix(1 0 0 1 1788.8301 939.4551)" fill="#010101" font-family="'LinBiolinum'" font-size="29">ISJ</text>
<text transform="matrix(1 0 0 1 1821.2998 939.4551)" fill="#010101" font-family="'LinBiolinum'" font-size="29"> </text>
<text transform="matrix(1 0 0 1 1828.0186 939.4551)" fill="#010101" font-family="'LinBiolinum'" font-size="29">are</text>
<text transform="matrix(1 0 0 1 1865.3877 939.4551)" fill="#010101" font-family="'LinBiolinum'" font-size="29"> </text>
<text transform="matrix(1 0 0 1 1872.1064 939.4551)" fill="#010101" font-family="'LinBiolinum'" font-size="29">used</text>
<text transform="matrix(1 0 0 1 1927.6436 939.4551)" fill="#010101" font-family="'LinBiolinum'" font-size="29"> </text>
<text transform="matrix(1 0 0 1 1934.3623 939.4551)" fill="#010101" font-family="'LinBiolinum'" font-size="29">to</text>
<text transform="matrix(1 0 0 1 1958.7178 939.4551)" fill="#010101" font-family="'LinBiolinum'" font-size="29"> </text>
<text transform="matrix(1 0 0 1 1965.4365 939.4551)" fill="#010101" font-family="'LinBiolinum'" font-size="29">update/prime</text>
<text transform="matrix(1 0 0 1 2127.3301 939.4551)" fill="#010101" font-family="'LinBiolinum'" font-size="29"> </text>
<text transform="matrix(1 0 0 1 2134.0498 939.4551)" fill="#010101" font-family="'LinBiolinum'" font-size="29">the </text>
<text transform="matrix(1 0 0 1 1493.0596 974.2549)" fill="#010101" font-family="'LinBiolinum'" font-size="29">machine learning model.</text>
<g opacity="0.5">
	<path fill="none" d="M3056.075,294.276"/>
</g>
<text transform="matrix(1 0 0 1 689.9688 46.5391)" fill="#010101" font-family="'LinBiolinumB'" font-size="36" letter-spacing="1">Document Review Queue</text>
<text transform="matrix(1 0 0 1 1148.7856 46.5391)" fill="#010101" font-family="'LinBiolinumB'" font-size="36"> Interface</text>
<text transform="matrix(1 0 0 1 651.0356 80.1387)" fill="#010101" font-family="'LinBiolinumB'" font-size="28">Based on Continuous Active Learning (CAL/AutoTAR)</text>
<text transform="matrix(1 0 0 1 1338.458 80.1387)" fill="#010101" font-family="'LinBiolinumB'" font-size="28"> </text>
<text transform="matrix(1 0 0 1 1995.8711 46.5391)" fill="#010101" font-family="'LinBiolinumB'" font-size="36">Interactive Search and Judging (ISJ) Interface</text>
<g opacity="0.5">
	<g>
		<polyline fill="none" stroke="#333333" stroke-width="3" stroke-miterlimit="10" stroke-dasharray="5,5" points="
			1768.056,873.088 1768.056,892.024 1526.96,892.024 1526.96,870.271 		"/>
		<g>
			<g>
				<circle fill="#FFFFFF" cx="1768.056" cy="873.407" r="5.64"/>
				<path fill="#333333" d="M1761.666,873.407c0,3.521,2.866,6.39,6.39,6.39c3.524,0,6.391-2.867,6.391-6.39
					c0-3.523-2.866-6.391-6.391-6.391C1764.532,867.017,1761.666,869.885,1761.666,873.407
					C1761.666,876.929,1761.666,869.885,1761.666,873.407z M1772.945,873.407c0,2.695-2.192,4.89-4.891,4.89
					c-2.697,0-4.89-2.193-4.89-4.89c0-2.697,2.192-4.891,4.89-4.891C1770.753,868.517,1772.945,870.711,1772.945,873.407
					C1772.945,876.103,1772.945,870.711,1772.945,873.407z"/>
			</g>
		</g>
		<g>
			<polygon fill="#333333" points="1539.229,880.211 1537.032,882.258 1526.963,871.422 1516.891,882.258 1514.693,880.211 
				1526.963,867.018 			"/>
		</g>
	</g>
</g>
<text transform="matrix(1 0 0 1 1267.6162 956.8633)" fill="#010101" font-family="'LinBiolinumB'" font-size="47">Feedback </text>
<g opacity="0.5">
	<g>
		
			<line fill="none" stroke="#333333" stroke-width="3" stroke-miterlimit="10" stroke-dasharray="5,5" x1="438.729" y1="374.896" x2="325.751" y2="374.896"/>
		<g>
			<g>
				<circle fill="#FFFFFF" cx="439.188" cy="374.783" r="5.641"/>
				<path fill="#333333" d="M439.188,368.393c-3.523,0-6.391,2.867-6.391,6.391s2.867,6.391,6.391,6.391
					c3.522,0,6.39-2.867,6.39-6.391S442.71,368.393,439.188,368.393C435.664,368.393,442.71,368.393,439.188,368.393z
					 M439.188,379.672c-2.697,0-4.891-2.193-4.891-4.89c0-2.697,2.193-4.89,4.891-4.89c2.696,0,4.89,2.192,4.89,4.89
					C444.077,377.479,441.884,379.672,439.188,379.672C436.49,379.672,441.884,379.672,439.188,379.672z"/>
			</g>
		</g>
		<g>
			<polygon fill="#333333" points="331.324,362.627 333.371,364.824 322.535,374.895 333.371,384.966 331.324,387.163 
				318.131,374.895 			"/>
		</g>
	</g>
</g>
</svg>
